<svg width="58" height="60" viewBox="0 0 58 60" fill="none" xmlns="http://www.w3.org/2000/svg">
<path d="M44.0393 19.8232V12.7082C44.9804 12.2676 45.7774 11.5691 46.3376 10.6938C46.8978 9.81858 47.1983 8.8024 47.2043 7.76322V7.59572C47.2003 6.14332 46.6218 4.7515 45.595 3.72426C44.5682 2.69702 43.1767 2.11783 41.7243 2.11322H41.5568C40.1044 2.11717 38.7126 2.69572 37.6853 3.72249C36.6581 4.74926 36.0789 6.14082 36.0743 7.59322V7.76072C36.0789 8.79413 36.3751 9.80527 36.9288 10.6778C37.4825 11.5504 38.2712 12.249 39.2043 12.6932L39.2368 12.7082V19.8382C36.5164 20.2539 33.9551 21.384 31.8143 23.1132L31.8443 23.0907L12.2743 7.85072C12.6465 6.45469 12.5229 4.97277 11.9247 3.65765C11.3264 2.34253 10.2905 1.27565 8.99361 0.638918C7.69668 0.00218622 6.21905 -0.164965 4.81266 0.165965C3.40627 0.496895 2.15822 1.30541 1.28131 2.45366C0.404397 3.60191 -0.047071 5.01878 0.00388626 6.46268C0.0548435 7.90658 0.60507 9.28809 1.56075 10.3717C2.51642 11.4552 3.81837 12.1738 5.24459 12.4047C6.6708 12.6357 8.13298 12.3648 9.38179 11.6382L9.35179 11.6532L28.5918 26.6307C26.8907 29.1811 25.9874 32.1801 25.9968 35.2457C25.9968 38.6032 27.0593 41.7157 28.8643 44.2607L28.8318 44.2132L22.9768 50.0682C22.5081 49.9169 22.0193 49.8369 21.5268 49.8307H21.5218C20.5166 49.8307 19.5339 50.1288 18.6981 50.6873C17.8623 51.2457 17.2109 52.0395 16.8262 52.9682C16.4415 53.8969 16.3408 54.9189 16.5369 55.9048C16.7331 56.8907 17.2171 57.7963 17.9279 58.5071C18.6387 59.2179 19.5443 59.7019 20.5302 59.8981C21.5162 60.0942 22.5381 59.9935 23.4668 59.6088C24.3955 59.2242 25.1893 58.5727 25.7477 57.7369C26.3062 56.9011 26.6043 55.9184 26.6043 54.9132C26.5983 54.4076 26.5149 53.906 26.3568 53.4257L26.3668 53.4607L32.1593 47.6682C34.0471 49.1097 36.2389 50.1016 38.5678 50.5684C40.8968 51.0353 43.3015 50.9647 45.5991 50.3622C47.8966 49.7596 50.0265 48.6409 51.8266 47.0912C53.6266 45.5415 55.0495 43.6017 55.987 41.4192C56.9244 39.2368 57.3517 36.8693 57.2363 34.4968C57.1209 32.1243 56.4659 29.8095 55.3211 27.7283C54.1763 25.6471 52.5718 23.8545 50.6298 22.4868C48.6878 21.1192 46.4595 20.2124 44.1143 19.8357L44.0243 19.8232H44.0393ZM41.6293 43.2657C40.0449 43.2618 38.4973 42.7883 37.1819 41.9052C35.8664 41.0221 34.8422 39.769 34.2387 38.3041C33.6351 36.8392 33.4792 35.2283 33.7907 33.6748C34.1023 32.1214 34.8672 30.6951 35.9889 29.5762C37.1106 28.4573 38.5388 27.6959 40.093 27.3883C41.6472 27.0806 43.2577 27.2405 44.7211 27.8478C46.1845 28.455 47.4351 29.4823 48.3149 30.7999C49.1947 32.1175 49.6643 33.6664 49.6643 35.2507V35.2557C49.6643 37.3814 48.8199 39.4201 47.3168 40.9232C45.8136 42.4263 43.775 43.2707 41.6493 43.2707L41.6293 43.2657Z" fill="#007BFF"/>
</svg>
