<svg width="34" height="34" viewBox="0 0 34 34" fill="none" xmlns="http://www.w3.org/2000/svg">
<path d="M1.88889 15.1111H13.2222C13.7232 15.1111 14.2036 14.9121 14.5579 14.5579C14.9121 14.2036 15.1111 13.7232 15.1111 13.2222V1.88889C15.1111 1.38792 14.9121 0.907478 14.5579 0.553243C14.2036 0.199007 13.7232 0 13.2222 0H1.88889C1.38792 0 0.907478 0.199007 0.553243 0.553243C0.199007 0.907478 0 1.38792 0 1.88889V13.2222C0 13.7232 0.199007 14.2036 0.553243 14.5579C0.907478 14.9121 1.38792 15.1111 1.88889 15.1111ZM3.77778 3.77778H11.3333V11.3333H3.77778V3.77778ZM32.1111 0H20.7778C20.2768 0 19.7964 0.199007 19.4421 0.553243C19.0879 0.907478 18.8889 1.38792 18.8889 1.88889V13.2222C18.8889 13.7232 19.0879 14.2036 19.4421 14.5579C19.7964 14.9121 20.2768 15.1111 20.7778 15.1111H32.1111C32.6121 15.1111 33.0925 14.9121 33.4468 14.5579C33.801 14.2036 34 13.7232 34 13.2222V1.88889C34 1.38792 33.801 0.907478 33.4468 0.553243C33.0925 0.199007 32.6121 0 32.1111 0ZM30.2222 11.3333H22.6667V3.77778H30.2222V11.3333ZM13.2222 34C13.7232 34 14.2036 33.801 14.5579 33.4468C14.9121 33.0925 15.1111 32.6121 15.1111 32.1111V20.7778C15.1111 20.2768 14.9121 19.7964 14.5579 19.4421C14.2036 19.0879 13.7232 18.8889 13.2222 18.8889H1.88889C1.38792 18.8889 0.907478 19.0879 0.553243 19.4421C0.199007 19.7964 0 20.2768 0 20.7778V32.1111C0 32.6121 0.199007 33.0925 0.553243 33.4468C0.907478 33.801 1.38792 34 1.88889 34H13.2222ZM3.77778 22.6667H11.3333V30.2222H3.77778V22.6667ZM28.3333 20.7778H24.5556V24.5556H20.7778V28.3333H24.5556V32.1111H28.3333V28.3333H32.1111V24.5556H28.3333V20.7778Z" fill="white"/>
</svg>
