<svg width="26" height="26" viewBox="0 0 26 26" fill="none" xmlns="http://www.w3.org/2000/svg">
<path d="M0.875 12.875C0.875 19.5026 6.2474 24.875 12.875 24.875C19.5026 24.875 24.875 19.5026 24.875 12.875C24.875 6.2474 19.5026 0.875 12.875 0.875C6.2474 0.875 0.875 6.2474 0.875 12.875Z" stroke="#424242" stroke-width="1.75" stroke-linecap="round" stroke-linejoin="round"/>
<path d="M14.0768 0.935547C14.0768 0.935547 17.6768 5.67555 17.6768 12.8755C17.6768 20.0755 14.0768 24.8155 14.0768 24.8155M11.6768 24.8155C11.6768 24.8155 8.07681 20.0755 8.07681 12.8755C8.07681 5.67555 11.6768 0.935547 11.6768 0.935547M1.63281 17.0755H24.1208M1.63281 8.67555H24.1208" stroke="#424242" stroke-width="1.75" stroke-linecap="round" stroke-linejoin="round"/>
</svg>
