<svg width="28" height="29" viewBox="0 0 28 29" fill="none" xmlns="http://www.w3.org/2000/svg">
<path d="M1 27.9996V22.1996C1 20.4996 2.3 19.0996 4 19.0996C5.6 19.0996 7 20.4996 7 22.1996V23.9996V23.5996C7 22.4996 7.9 21.6996 9 21.6996C10.1 21.6996 11 22.5996 11 23.5996V23.9996C11 25.5996 12.3 26.9996 14 26.9996C15.6 26.9996 17 25.6996 17 23.9996V23.5996C17 22.4996 17.9 21.6996 19 21.6996C20.1 21.6996 21 22.5996 21 23.5996V23.9996V22.1996C21 20.4996 22.3 19.0996 24 19.0996C25.6 19.0996 27 20.4996 27 22.1996V27.9996" stroke="#007BFF" stroke-width="2" stroke-miterlimit="10" stroke-linecap="round" stroke-linejoin="round"/>
<path d="M11 16H9L12 11V4L14 1L16 4V11L19 16H17" stroke="#007BFF" stroke-width="2" stroke-miterlimit="10" stroke-linecap="round" stroke-linejoin="round"/>
<path d="M14 17V22" stroke="#007BFF" stroke-width="2" stroke-miterlimit="10" stroke-linecap="round" stroke-linejoin="round"/>
</svg>
