<svg width="29" height="24" viewBox="0 0 29 24" fill="none" xmlns="http://www.w3.org/2000/svg">
<path d="M16.5754 23.8148C16.5168 23.7561 16.4703 23.6865 16.4386 23.6098C16.4069 23.5331 16.3905 23.4509 16.3905 23.3679C16.3905 23.2849 16.4069 23.2028 16.4386 23.1261C16.4703 23.0494 16.5168 22.9798 16.5754 22.9211L26.8466 12.6315L0.630423 12.6315C0.463223 12.6315 0.302872 12.5649 0.184645 12.4465C0.0664165 12.3281 -1.20881e-06 12.1674 -1.19216e-06 11.9999C-1.17552e-06 11.8324 0.0664165 11.6718 0.184645 11.5533C0.302872 11.4349 0.463223 11.3684 0.630423 11.3684L26.8466 11.3684L16.5754 1.07873C16.5169 1.02006 16.4704 0.950394 16.4387 0.873727C16.407 0.797061 16.3907 0.71489 16.3907 0.631907C16.3907 0.548923 16.407 0.466752 16.4387 0.390086C16.4704 0.313419 16.5169 0.243758 16.5754 0.18508C16.634 0.126402 16.7035 0.0798559 16.7801 0.0480996C16.8566 0.0163433 16.9386 -1.19827e-06 17.0214 -1.19004e-06C17.1043 -1.18181e-06 17.1863 0.0163433 17.2628 0.0480997C17.3394 0.079856 17.4089 0.126402 17.4675 0.18508L28.8151 11.5531C28.8737 11.6118 28.9202 11.6814 28.9519 11.7581C28.9837 11.8347 29 11.9169 29 11.9999C29 12.0829 28.9837 12.1651 28.9519 12.2418C28.9202 12.3184 28.8737 12.3881 28.8151 12.4468L17.4675 23.8148C17.4089 23.8735 17.3394 23.9201 17.2629 23.9519C17.1863 23.9836 17.1043 24 17.0214 24C16.9386 24 16.8566 23.9836 16.78 23.9519C16.7035 23.9201 16.634 23.8735 16.5754 23.8148Z" fill="black"/>
</svg>
