<svg width="35" height="35" viewBox="0 0 35 35" fill="none" xmlns="http://www.w3.org/2000/svg">
<path d="M31.1111 0C33.2589 0 35 1.74111 35 3.88889V31.1111C35 33.2589 33.2589 35 31.1111 35H3.88889C1.74111 35 0 33.2589 0 31.1111V3.88889C0 1.74111 1.74111 0 3.88889 0H31.1111ZM31.1111 3.88889H3.88889V31.1111H31.1111V3.88889ZM17.5721 9.1944C18.0994 7.50745 20.3734 7.34638 21.1708 8.83725L21.2701 9.05081L24.6497 17.5H27.2222C28.2961 17.5 29.1667 18.3705 29.1667 19.4444C29.1667 20.4417 28.4161 21.2635 27.449 21.3758L27.2222 21.3889H23.3466C22.6238 21.3889 21.9666 20.9929 21.6249 20.3701L21.5231 20.1544L19.6696 15.5207L16.4537 25.8117C15.9503 27.422 13.8197 27.6651 12.9395 26.3088L12.8226 26.1042L10.4649 21.3889H7.77778C6.7039 21.3889 5.83333 20.5184 5.83333 19.4444C5.83333 18.4472 6.58398 17.6254 7.55102 17.5131L7.77778 17.5H11.6547C12.3159 17.5 12.9266 17.832 13.2878 18.3731L13.4112 18.5856L14.1659 20.0949L17.5721 9.1944Z" fill="white"/>
</svg>
