<svg width="29" height="24" viewBox="0 0 29 24" fill="none" xmlns="http://www.w3.org/2000/svg">
<path d="M12.4246 0.185227C12.4832 0.243881 12.5297 0.313534 12.5614 0.390204C12.5931 0.466873 12.6095 0.549057 12.6095 0.632054C12.6095 0.71505 12.5931 0.797234 12.5614 0.873903C12.5297 0.950573 12.4832 1.02023 12.4246 1.07888L2.15339 11.3685L28.3696 11.3685C28.5368 11.3685 28.6971 11.4351 28.8154 11.5535C28.9336 11.6719 29 11.8326 29 12.0001C29 12.1676 28.9336 12.3282 28.8154 12.4467C28.6971 12.5651 28.5368 12.6316 28.3696 12.6316L2.15339 12.6316L12.4246 22.9213C12.4831 22.9799 12.5296 23.0496 12.5613 23.1263C12.593 23.2029 12.6093 23.2851 12.6093 23.3681C12.6093 23.4511 12.593 23.5332 12.5613 23.6099C12.5296 23.6866 12.4831 23.7562 12.4246 23.8149C12.366 23.8736 12.2965 23.9201 12.2199 23.9519C12.1434 23.9837 12.0614 24 11.9786 24C11.8957 24 11.8137 23.9837 11.7372 23.9519C11.6606 23.9201 11.5911 23.8736 11.5325 23.8149L0.184895 12.4469C0.12628 12.3882 0.0797812 12.3186 0.0480556 12.2419C0.0163299 12.1653 1.42108e-07 12.0831 1.43098e-07 12.0001C1.44087e-07 11.9171 0.01633 11.8349 0.0480556 11.7582C0.0797812 11.6816 0.12628 11.6119 0.184895 11.5532L11.5325 0.185227C11.5911 0.126507 11.6606 0.0799238 11.7371 0.0481416C11.8137 0.0163576 11.8957 1.41855e-07 11.9786 1.42843e-07C12.0614 1.43831e-07 12.1434 0.0163576 12.22 0.0481416C12.2965 0.0799238 12.366 0.126507 12.4246 0.185227Z" fill="black"/>
</svg>
