<svg width="34" height="42" viewBox="0 0 34 42" fill="none" xmlns="http://www.w3.org/2000/svg">
<path fill-rule="evenodd" clip-rule="evenodd" d="M17.8447 0.201544C17.313 -0.0671815 16.687 -0.0671815 16.1553 0.201544L1.04416 7.83792C0.404222 8.1613 0 8.82236 0 9.54547V21C0 26.0824 1.62546 30.338 4.53889 33.8217C7.42194 37.2689 11.4933 39.8768 16.2849 41.8578C16.7431 42.0474 17.2569 42.0474 17.7151 41.8578C22.5067 39.8768 26.578 37.2689 29.4612 33.8217C32.3746 30.338 34 26.0824 34 21V9.54547C34 8.82236 33.5958 8.1613 32.9558 7.83792L17.8447 0.201544ZM3.77778 21V10.7253L17 4.04352L30.2222 10.7253V21C30.2222 25.1857 28.9094 28.5667 26.5759 31.3568C24.3404 34.03 21.1029 36.2352 17 38.0207C12.8971 36.2352 9.65961 34.03 7.42407 31.3568C5.09059 28.5667 3.77778 25.1857 3.77778 21ZM25.9858 16.5198C26.6671 15.7215 26.5793 14.516 25.7894 13.8273C24.9996 13.1385 23.8068 13.2273 23.1253 14.0257L14.6629 23.9393L10.7671 20.0775C10.0223 19.3393 8.82638 19.351 8.09591 20.1037C7.36544 20.8565 7.37704 22.0651 8.12181 22.8034L13.4551 28.0902C13.8278 28.4596 14.335 28.6566 14.8563 28.6347C15.3778 28.6127 15.867 28.3737 16.208 27.9743L25.9858 16.5198Z" fill="white"/>
</svg>
