<svg width="38" height="38" viewBox="0 0 38 38" fill="none" xmlns="http://www.w3.org/2000/svg">
<path fill-rule="evenodd" clip-rule="evenodd" d="M33.8201 15.542C33.2311 9.5 29.6591 0 18.6201 0C7.58109 0 4.00909 9.5 3.42009 15.542C1.35386 16.3262 -0.00905262 18.31 4.52709e-05 20.52V23.18C4.52709e-05 26.1182 2.38194 28.5 5.32009 28.5C8.25825 28.5 10.6401 26.1182 10.6401 23.18V20.52C10.6305 18.3577 9.31768 16.4147 7.31509 15.599C7.69509 12.103 9.55709 3.8 18.6201 3.8C27.6831 3.8 29.5261 12.103 29.9061 15.599C27.9076 16.4164 26.6013 18.3608 26.6001 20.52V23.18C26.6083 25.2225 27.7811 27.0812 29.6211 27.968C28.8231 29.469 26.7901 31.502 21.7931 32.11C20.7942 30.5932 18.8617 29.9953 17.1807 30.6829C15.4998 31.3705 14.5404 33.1515 14.8909 34.9334C15.2415 36.7154 16.8039 38 18.6201 38C20.0552 37.9921 21.3635 37.1762 22.0021 35.891C30.1531 34.96 32.7561 30.761 33.5731 28.291C35.7834 27.575 37.2699 25.5032 37.2401 23.18V20.52C37.2492 18.31 35.8863 16.3262 33.8201 15.542ZM6.84009 23.18C6.84009 24.0195 6.15956 24.7 5.32009 24.7C4.48062 24.7 3.80009 24.0195 3.80009 23.18V20.52C3.80009 19.977 4.0898 19.4752 4.56009 19.2036C5.03038 18.9321 5.6098 18.9321 6.08009 19.2036C6.55038 19.4752 6.84009 19.977 6.84009 20.52V23.18ZM30.4001 20.52C30.4001 19.6805 31.0806 19 31.9201 19C32.7596 19 33.4401 19.6805 33.4401 20.52V23.18C33.4401 24.0195 32.7596 24.7 31.9201 24.7C31.0806 24.7 30.4001 24.0195 30.4001 23.18V20.52Z" fill="white"/>
</svg>
